<svg width="900" height="560" viewBox="0 0 900 560" xmlns="http://www.w3.org/2000/svg">
  <!-- right anchored land mass -->
  <path d="M520,470 C640,450 760,470 900,460 L900,560 L520,560 Z" fill="#2d9c8a" opacity="0.22"/>
  <path d="M560,500 C700,490 820,510 900,500 L900,560 L560,560 Z" fill="#0a2540" opacity="0.08"/>

  <!-- coral house block -->
  <g transform="translate(680,300)">
    <rect x="0" y="50" width="160" height="150" rx="6" fill="#ff8f70" stroke="#0a2540" stroke-width="3" opacity="0.95"/>
    <polygon points="-10,50 170,50 150,20 -30,20" fill="#ff8f70" stroke="#0a2540" stroke-width="3"/>
    <rect x="24" y="90" width="28" height="40" fill="#ffffff" stroke="#0a2540" stroke-width="3"/>
    <rect x="108" y="90" width="28" height="40" fill="#ffffff" stroke="#0a2540" stroke-width="3"/>
    <rect x="24" y="150" width="28" height="40" fill="#ffffff" stroke="#0a2540" stroke-width="3"/>
    <rect x="108" y="150" width="28" height="40" fill="#ffffff" stroke="#0a2540" stroke-width="3"/>
    <rect x="70" y="150" width="30" height="50" fill="#0a2540" stroke="#0a2540" stroke-width="3"/>
  </g>

  <!-- palm trees group -->
  <g transform="translate(610,250)">
    <rect x="0" y="0" width="2" height="2" fill="transparent"/>
    <!-- trunk -->
    <path d="M40,40 C45,120 52,200 56,260" stroke="#8b5e3c" stroke-width="8" fill="none"/>
    <!-- fronds -->
    <g fill="#1f7f72" stroke="#0a2540" stroke-width="2">
      <path d="M56,60 C90,40 120,50 150,70 C110,70 90,70 56,60 Z"/>
      <path d="M56,65 C80,30 100,25 120,24 C95,40 76,54 56,65 Z"/>
      <path d="M56,60 C30,45 6,42 -20,50 C12,58 36,60 56,60 Z"/>
      <path d="M56,62 C20,30 -10,18 -30,18 C0,42 30,54 56,62 Z"/>
    </g>
  </g>

  <!-- second smaller palm -->
  <g transform="translate(630,290) scale(0.75)">
    <path d="M40,40 C45,120 52,200 56,260" stroke="#8b5e3c" stroke-width="8" fill="none"/>
    <g fill="#1f7f72" stroke="#0a2540" stroke-width="2">
      <path d="M56,60 C90,40 120,50 150,70 C110,70 90,70 56,60 Z"/>
      <path d="M56,65 C80,30 100,25 120,24 C95,40 76,54 56,65 Z"/>
      <path d="M56,60 C30,45 6,42 -20,50 C12,58 36,60 56,60 Z"/>
      <path d="M56,62 C20,30 -10,18 -30,18 C0,42 30,54 56,62 Z"/>
    </g>
  </g>

  <!-- Bermuda landmark: Gibbs Hill Lighthouse silhouette on a distant ridge -->
  <g transform="translate(540,260)">
    <path d="M-220,200 C-160,170 -120,170 -60,190 L-60,220 L-240,220 Z" fill="#0a2540" opacity="0.10"/>
    <g transform="translate(-120,120)" fill="#0a2540" opacity="0.55">
      <rect x="-8" y="0" width="16" height="70" rx="3"/>
      <rect x="-12" y="70" width="24" height="10"/>
      <circle cx="0" cy="-6" r="8"/>
    </g>
  </g>

  <!-- sailboat -->
  <g transform="translate(520,460)">
    <rect x="-40" y="12" width="80" height="8" fill="#0a2540" opacity="0.6"/>
    <rect x="0" y="-60" width="4" height="72" fill="#0a2540"/>
    <path d="M0,-56 L0,8 L-60,8 Z" fill="#ffffff" stroke="#0a2540" stroke-width="2"/>
  </g>
</svg>