<svg width="1600" height="900" viewBox="0 0 1600 900" xmlns="http://www.w3.org/2000/svg">
  <defs>
    <linearGradient id="sky" x1="0" y1="0" x2="0" y2="1">
      <stop offset="0%" stop-color="#fff8f1"/>
      <stop offset="100%" stop-color="#ffffff"/>
    </linearGradient>
  </defs>

  <!-- sky -->
  <rect width="1600" height="900" fill="url(#sky)"/>

  <!-- sun -->
  <circle cx="1300" cy="140" r="60" fill="#ff5b04" opacity="0.25"/>

  <!-- subtle clouds -->
  <g fill="#0a2540" opacity="0.06">
    <ellipse cx="980" cy="170" rx="90" ry="22"/>
    <ellipse cx="1040" cy="170" rx="40" ry="14"/>
    <ellipse cx="1160" cy="220" rx="70" ry="18"/>
  </g>

  <!-- distant shore shapes kept right, left side clear -->
  <path d="M0,560 C300,520 600,600 1000,540 C1240,510 1420,540 1600,520 L1600,900 L0,900 Z"
        fill="#edf5f6"/>
  <path d="M0,650 C320,630 520,680 940,650 C1180,635 1380,690 1600,660 L1600,900 L0,900 Z"
        fill="#dff1ee"/>
  <!-- near water -->
  <path d="M760,720 C1040,700 1260,730 1600,710 L1600,900 L760,900 Z" fill="#2d9c8a" opacity="0.2"/>
</svg>