<?xml version="1.0" encoding="UTF-8"?>
<svg id="Layer_1" data-name="Layer 1" xmlns="http://www.w3.org/2000/svg" viewBox="0 0 727.74 130.32">
  <defs>
    <style>
      .cls-1 {
        fill: #2d9c8a;
      }

      .cls-2 {
        fill: #0a2540;
      }
    </style>
  </defs>
  <path class="cls-1" d="M71.4,77.82c9.42-2.81,16.55-7.58,21.38-14.31,4.83-6.73,7.25-14.38,7.25-22.95,0-7.58-1.77-14.46-5.32-20.65-3.55-6.17-8.9-11.04-16.06-14.59-7.16-3.54-15.82-5.32-25.97-5.32H0v26.06h50.84c5.75,0,10.06,1.41,12.94,4.23,2.87,2.81,4.31,6.67,4.31,11.56,0,5.14-1.44,9.12-4.31,11.93-2.88,2.81-7.19,4.22-12.94,4.22H0v70.85h31.39v-48.64h7.52l26.8,48.64h35.42l-29.73-51.03Z"/>
  <path class="cls-2" d="M216.21,75.99c0-10.28-2.17-19.27-6.51-26.98-4.35-7.71-10.37-13.65-18.08-17.81-7.71-4.16-16.52-6.24-26.43-6.24s-19.15,2.14-26.98,6.43c-7.84,4.28-13.92,10.4-18.27,18.35-4.34,7.96-6.51,17.25-6.51,27.9s2.2,19.94,6.61,27.9c4.4,7.95,10.52,14.07,18.35,18.35,7.83,4.29,16.76,6.43,26.8,6.43,8.32,0,15.84-1.53,22.57-4.59s12.33-7.28,16.8-12.67c4.46-5.38,7.55-11.44,9.27-18.17h-33.41c-3.06,6.61-8.5,9.91-16.33,9.91-5.27,0-9.7-1.68-13.31-5.04-3.61-3.37-5.66-8.23-6.15-14.6h71.03c.37-3.18.55-6.24.55-9.17ZM144.81,67.73c.86-5.63,3.09-9.97,6.7-13.03s8.05-4.59,13.31-4.59,10.09,1.59,13.77,4.77c3.67,3.18,5.5,7.46,5.5,12.85h-39.28Z"/>
  <path class="cls-2" d="M277.33,103.52c-5.75,0-10.34-2.23-13.76-6.7-3.43-4.47-5.14-10.86-5.14-19.18s1.71-14.71,5.14-19.18c3.42-4.47,8.01-6.7,13.76-6.7,8.08,0,13.52,3.92,16.34,11.75h33.4c-2.69-12.24-8.35-21.72-16.98-28.45-8.62-6.73-19.36-10.1-32.21-10.1-10.03,0-18.93,2.14-26.7,6.43-7.78,4.28-13.83,10.4-18.17,18.35-4.35,7.96-6.52,17.25-6.52,27.9s2.17,19.94,6.52,27.9c4.34,7.95,10.39,14.07,18.17,18.35,7.77,4.29,16.67,6.43,26.7,6.43,12.73,0,23.43-3.43,32.12-10.28,8.69-6.85,14.38-16.27,17.07-28.27h-33.4c-2.82,7.83-8.26,11.75-16.34,11.75Z"/>
  <path class="cls-2" d="M440.32,75.99c0-10.28-2.18-19.27-6.52-26.98-4.34-7.71-10.37-13.65-18.08-17.81-7.71-4.16-16.52-6.24-26.43-6.24s-19.15,2.14-26.98,6.43c-7.83,4.28-13.92,10.4-18.26,18.35-4.35,7.96-6.52,17.25-6.52,27.9s2.2,19.94,6.61,27.9c4.4,7.95,10.52,14.07,18.35,18.35,7.83,4.29,16.77,6.43,26.8,6.43,8.32,0,15.85-1.53,22.58-4.59s12.32-7.28,16.79-12.67c4.47-5.38,7.56-11.44,9.27-18.17h-33.41c-3.05,6.61-8.5,9.91-16.33,9.91-5.26,0-9.7-1.68-13.31-5.04-3.61-3.37-5.66-8.23-6.15-14.6h71.04c.36-3.18.55-6.24.55-9.17ZM368.92,67.73c.85-5.63,3.09-9.97,6.7-13.03s8.04-4.59,13.3-4.59,10.1,1.59,13.77,4.77,5.51,7.46,5.51,12.85h-39.28Z"/>
  <path class="cls-2" d="M456.83,26.43v102.42h31.39V26.43h-31.39Z"/>
  <path class="cls-2" d="M579.26,26.43l-22.21,73.05-22.21-73.05h-33.59l36.34,102.42h38.73l36.34-102.42h-33.4Z"/>
  <path class="cls-2" d="M696.36,26.43v14.5c-2.94-4.77-7.13-8.63-12.58-11.56-5.44-2.94-11.78-4.41-18.99-4.41-8.45,0-16.1,2.14-22.95,6.43-6.85,4.28-12.27,10.4-16.24,18.35-3.98,7.96-5.96,17.19-5.96,27.72s1.98,19.79,5.96,27.8c3.97,8.02,9.39,14.2,16.24,18.54,6.85,4.34,14.44,6.52,22.76,6.52,7.22,0,13.55-1.47,19-4.41,5.44-2.94,9.7-6.79,12.76-11.56v14.5h31.38V26.43h-31.38ZM689.84,96.18c-4.34,4.53-9.64,6.79-15.88,6.79s-11.53-2.3-15.87-6.88c-4.35-4.59-6.52-10.8-6.52-18.63s2.17-13.98,6.52-18.45c4.34-4.47,9.63-6.7,15.87-6.7s11.54,2.27,15.88,6.79c4.34,4.53,6.52,10.71,6.52,18.54s-2.18,14.01-6.52,18.54Z"/>
</svg>
